<svg xmlns="http://www.w3.org/2000/svg" version="1.1" viewBox="-5.0 -10.0 110.0 135.0">
 <path d="m30.574 93.391c-1.8242 2.2344-3 3.5664-3 3.5664-0.34375 0.39062-0.94141 0.42578-1.332 0.082031-0.38672-0.34375-0.42578-0.94141-0.082032-1.3281 0 0 1.293-1.4609 3.2656-3.8867 0.027344-0.035157 0.054688-0.066407 0.082031-0.097657 0.47656-0.58594 0.98828-1.2266 1.5312-1.9102-1.3555-1.4961-4.3125-5.7344-5.0039-14.871-0.32031-4.1953-0.066406-6.957 0.46094-8.3789 0.34375-0.92188 0.85547-1.4062 1.3477-1.5898 0.58594-0.22266 1.2852-0.12109 1.9844 0.52344 0.92188 0.84375 2.0195 2.9688 2.9492 6.332 1.5273 5.5156 1.375 10.969 1.0117 14.426 1.918-2.5469 4.0039-5.4531 6.0039-8.5195-0.58203-2.6289-1.0273-5.8047-1.3711-9.2578-1.4375-1.0898-8.9141-6.918-11.008-11.457-0.77344-1.6836-0.97656-3.0508-0.82812-4.0312 0.125-0.85156 0.50391-1.4688 1.0117-1.8594 0.52734-0.40625 1.2109-0.58984 2.0078-0.47656 0.92578 0.13281 2.0508 0.69531 3.1719 1.8203 0.99219 0.99219 2.082 2.7812 3.0938 4.8164 0.72266 1.4453 1.4141 3.0156 2.0234 4.4844-0.27344-4.4688-0.41797-9.0859-0.48828-13.371-0.83203-0.60547-4.375-3.2422-7.4375-6.5469-2.4258-2.6172-4.5195-5.6602-4.9062-8.4531-0.30078-2.1523-0.21484-3.7578 0.10547-4.8047 0.29297-0.95312 0.79688-1.5312 1.3672-1.8125 0.61719-0.30469 1.3711-0.30469 2.207 0.125 0.86719 0.45313 1.9023 1.457 2.9414 3.0664 1.8711 2.8984 4.1523 8.6523 5.6719 12.77-0.015625-5.9961 0.089843-10.652 0.12891-12.168-1.5234-0.19531-3.0469-0.81641-4.1836-2.0312-1.4805-1.5781-2.375-4.2031-1.5859-8.3477 0.63281-3.3438 1.8555-4.9922 3.0156-5.8086 0.35938-0.25391 0.71875-0.43359 1.0664-0.55859-0.22266-0.25-0.46094-0.52734-0.70312-0.83594-0.54688-0.69531-0.69922-1.3438-0.65625-1.8555 0.011719-0.16406 0.046875-0.32031 0.09375-0.46484l0.20703-0.41797 0.29688-0.34766 0.36719-0.25391c0.83984-0.45312 2.2617-0.33984 3.2227 1.1094 0.13281 0.20312 0.24609 0.40234 0.34375 0.59766 0.41406-0.625 0.89844-1.1484 1.3945-1.4375 0.58984-0.34766 1.1328-0.39453 1.5703-0.29688l0.37891 0.12891 0.33203 0.21094 0.27344 0.27734 0.20312 0.31641c0.35938 0.71484 0.32422 1.8594-0.625 2.8359-0.12891 0.13281-0.26953 0.26172-0.41797 0.38672 0.54297 0.17578 1.0547 0.43359 1.5234 0.76953 1.4727 1.0508 2.5625 2.8945 2.8086 5.5391 0.28906 3.0508-0.83203 6.1133-2.6758 8.1289-1.2109 1.3242-2.7305 2.1953-4.3633 2.3789-0.0625 2.2812-0.29688 12.145 0.023437 22.824 0.96875-2.2383 2.4023-4.8242 4.3867-6.6875 0.96094-0.90234 1.7656-1.375 2.3984-1.5664 0.95312-0.28516 1.6562-0.035156 2.1484 0.46094 0.47266 0.47656 0.76172 1.2969 0.76172 2.2891-0.003906 1.1992-0.40234 2.6836-1.125 3.8828-1.5586 2.5859-6.832 6.0898-8.3555 7.0703 0.29688 6.0195 0.80469 11.934 1.6484 16.57 2.2344-3.5938 4.2812-7.3281 5.7617-10.898 0.87109-2.0977 1.6289-4.2617 2.2852-6.4297 0.007812-0.027344 0.015624-0.050782 0.023437-0.074219 0.98047-3.25 1.7383-6.5039 2.3203-9.543-0.078126-0.03125-0.15234-0.074218-0.22266-0.12891 0 0-2.793-2.1602-5.1914-5.3125-1.6445-2.1641-3.0859-4.7891-3.3945-7.5-0.25391-2.2305-0.066406-3.4805 0.25391-4.0391l0.15234-0.23047 0.20312-0.21094 0.25-0.17188 0.28516-0.12109 0.47266-0.050781 0.31641 0.046875c0.089843 0.023438 0.18359 0.054688 0.27734 0.09375 0.41406 0.17578 0.91797 0.57812 1.4258 1.1602 0.62109 0.71094 1.2891 1.7109 1.8867 2.7383 1.3203 2.2734 2.9766 7.3828 3.8828 10.352 0.51562-3.1992 0.83594-6.0156 1.0312-8.1367-1.6211-0.14844-3.2734-0.76953-4.4883-2.0625-1.4805-1.5781-2.3711-4.1992-1.5859-8.3477 0.63281-3.3438 1.8516-4.9922 3.0117-5.8086 0.35938-0.25391 0.71875-0.43359 1.0703-0.55859-0.22656-0.25-0.46094-0.52734-0.70703-0.83594-0.54688-0.69531-0.69922-1.3438-0.65625-1.8555 0.011719-0.16406 0.046875-0.32031 0.09375-0.46484l0.20703-0.41797 0.29688-0.34766 0.36719-0.25391c0.83594-0.45312 2.2617-0.34375 3.2227 1.1094 0.13281 0.19922 0.24609 0.39844 0.34375 0.59766 0.41406-0.625 0.89844-1.1523 1.3906-1.4414 0.59375-0.34766 1.1367-0.39453 1.5703-0.29688l0.37891 0.12891 0.33594 0.21484 0.26953 0.27344 0.20312 0.31641c0.36328 0.71484 0.32813 1.8594-0.62109 2.8359-0.12891 0.13281-0.26953 0.26172-0.41797 0.38672 0.54297 0.17578 1.0547 0.43359 1.5234 0.76953 1.4766 1.0508 2.5625 2.8945 2.8125 5.5391 0.28906 3.0508-0.83203 6.1133-2.6719 8.1289-1.1328 1.2383-2.5391 2.0859-4.0547 2.3398-0.375 4.1562-1.2383 11.102-3.1328 18.395 3.1094-3.4727 5.5938-8.3789 7.5312-13.281 3.168-8.0195 4.8516-16.062 5.2617-18.145-1.5586-0.37891-3.0703-1.2148-4.0781-2.6367-1.25-1.7617-1.7773-4.4844-0.4375-8.4844 1.0859-3.2266 2.5195-4.6914 3.7812-5.3438 0.39062-0.20312 0.76953-0.33203 1.1328-0.41016-0.1875-0.27344-0.38672-0.58203-0.58594-0.92188-0.44531-0.76172-0.50781-1.4258-0.39844-1.9258 0.035156-0.16406 0.089844-0.3125 0.16016-0.44922l0.25781-0.38672 0.34375-0.30078 0.39844-0.20703c0.89062-0.33203 2.2852-0.027344 3.0391 1.543 0.10547 0.21484 0.19141 0.42578 0.26172 0.63672 0.49609-0.5625 1.0469-1.0156 1.5742-1.2344 0.63672-0.26562 1.1797-0.23828 1.5977-0.082031l0.35547 0.17969 0.30469 0.25391 0.23047 0.30859 0.16016 0.34375c0.25781 0.75781 0.066406 1.8867-1.0039 2.7266-0.14453 0.11328-0.30469 0.22266-0.46875 0.32422 0.51562 0.25 0.98438 0.57422 1.4062 0.96875 1.3164 1.2422 2.1445 3.2148 2.0312 5.875-0.13281 3.0586-1.6562 5.9414-3.7578 7.6836-1.3164 1.0977-2.8633 1.75-4.4336 1.7695-0.37109 1.9297-2.0938 10.281-5.3828 18.605-0.25 0.63281-0.50781 1.2656-0.77734 1.8945 0.90625-0.68359 1.9766-1.4297 3.1172-2.1172 2.3008-1.3867 4.9102-2.5039 7.1719-2.5078 2.0586 0 3.1328 0.64062 3.6016 1.3594 0.39453 0.60156 0.46094 1.3242 0.22266 2.082-0.44141 1.3984-2.082 2.957-3.7891 3.4648-2.5703 0.76172-10.539 1.5273-12.168 1.6797-2.1133 4.1406-4.6641 7.8672-7.668 10.309-0.65625 2.1445-1.4062 4.2852-2.2695 6.3633-1.7852 4.2969-4.3711 8.8281-7.1289 13.078-0.027343 0.050782-0.0625 0.10156-0.09375 0.14844-2.1484 3.2969-4.3906 6.4219-6.4375 9.1289 4.8047-1.5508 8.9258-3.7266 12.43-6.1719-0.15234-1.125-0.48828-4.1016-0.28125-7.2617 0.17969-2.7852 0.79688-5.6992 2.2461-7.7031 0.9375-1.2969 1.7031-1.9961 2.2617-2.2891 0.30859-0.16016 0.58594-0.22656 0.83203-0.23438l0.46875 0.054688 0.43359 0.19922c0.37891 0.25781 0.70312 0.76172 0.83203 1.5117 0.19141 1.1016 0.007812 2.8945-0.46094 4.6836-0.60547 2.3281-2.0508 5.9922-3.1367 8.6055 0.53125-0.4375 1.043-0.88281 1.5391-1.3281 0.011719-0.011718 0.023437-0.019531 0.035156-0.03125 3.0625-2.7617 5.4805-5.6328 7.3281-8.1914-1.3242-0.85156-2.4609-2.1133-2.9531-3.7539-0.62109-2.0742-0.25-4.8203 2.3047-8.1797 2.0586-2.7109 3.8867-3.6406 5.2891-3.8555 0.43359-0.066406 0.83594-0.066406 1.2031-0.023438-0.089844-0.32031-0.17578-0.67578-0.25781-1.0625-0.17578-0.86328-0.023438-1.5117 0.24219-1.9531 0.085938-0.14062 0.18359-0.26562 0.29297-0.37109l0.36719-0.28516 0.42187-0.17578 0.44531-0.066406c0.94922-0.027344 2.1758 0.70312 2.3867 2.4336 0.027344 0.23828 0.042968 0.46484 0.042968 0.6875 0.64844-0.375 1.3164-0.62891 1.8867-0.66797 0.68359-0.046875 1.1914 0.15234 1.5391 0.43359l0.28125 0.28906 0.20312 0.33594 0.12109 0.36719 0.039063 0.375c0.003906 0.80078-0.53906 1.8086-1.8203 2.2617-0.17578 0.058593-0.35937 0.11328-0.54687 0.15625 0.40625 0.40234 0.74609 0.85938 1.0195 1.3672 0.85156 1.6016 1.0039 3.7344 0.042969 6.2148-1.1016 2.8594-3.4727 5.1016-6.0156 6.082-1.6211 0.625-3.3125 0.74219-4.8203 0.23438-1.0977 1.5391-2.3945 3.1875-3.9062 4.8633 3.5742-1.5195 8.457-3.2266 12.566-3.3164 1.6797-0.035156 2.8672 0.24609 3.6445 0.67188 1.0352 0.56641 1.4688 1.3945 1.4766 2.2852 0.003906 0.91406-0.5 1.9648-1.5117 2.875-1.2852 1.1523-3.4023 2.1211-5.9883 2.2422-5.6641 0.26172-12.633-0.39844-14.395-0.57812-4.3125 3.8242-9.8281 7.4258-16.738 9.793 4.1289-1.1992 9.4883-2.2969 14.047-1.7109 1.7539 0.22656 2.9102 0.625 3.5938 1.0781 0.67578 0.44922 0.99219 0.98438 1.0859 1.5117 0.14062 0.82422-0.30469 1.7969-1.3945 2.6367-1.8516 1.4141-5.6875 2.6367-9.4648 2.3984-6.0508-0.38672-11.988-1.3633-13.785-1.6758zm5.3398-77.523c-0.035156 0.019531-0.066406 0.042968-0.097656 0.066406-0.91016 0.64062-1.7539 1.9961-2.2539 4.6211-0.62891 3.3164-0.074219 5.4453 1.1094 6.707 0.24219 0.25781 0.51172 0.48047 0.79688 0.66406-0.64453-1.6445-0.92969-4.0469-0.92578-6.8164 0.003906-2.4336 0.64453-4.1172 1.3711-5.2422zm7.0859 10.262c1.1133-1.6055 1.7344-3.7344 1.5352-5.8516-0.18359-1.9844-0.92578-3.3984-2.0273-4.1875-0.12891-0.089844-0.26172-0.17188-0.39844-0.24609 0.11719 0.18359 0.22266 0.375 0.32031 0.57812 0.62891 1.2773 0.88672 2.9414 1.1172 4.6133 0.20312 1.4727-0.011719 3.3867-0.54688 5.0938zm8.3984-3.8828c-0.03125 0.019531-0.066407 0.042968-0.097657 0.066406-0.91016 0.64062-1.75 1.9961-2.25 4.6211-0.625 3.3164-0.070312 5.4453 1.1133 6.707 0.24219 0.25781 0.51172 0.48047 0.79688 0.66406-0.64453-1.6445-0.93359-4.0469-0.92969-6.8164 0.003906-2.4336 0.64453-4.1172 1.3672-5.2422zm7.0938 10.258c1.1094-1.6055 1.7305-3.7344 1.5312-5.8516-0.1875-1.9844-0.92578-3.3984-2.0312-4.1836-0.12891-0.09375-0.26172-0.17578-0.39844-0.25 0.11719 0.18359 0.22656 0.37891 0.32422 0.57812 0.625 1.2773 0.88672 2.9414 1.1172 4.6133 0.20703 1.4727-0.011718 3.3867-0.54297 5.0938zm6.5742-23.438c-0.035156 0.015625-0.070312 0.03125-0.10547 0.050782-0.98828 0.51172-2.0078 1.7383-2.8555 4.2734-1.0742 3.1992-0.81641 5.3828 0.18359 6.793 0.20703 0.29297 0.44141 0.54688 0.69922 0.76953-0.41406-1.7188-0.37109-4.1367 0.011719-6.8789 0.33203-2.4141 1.1953-3.9922 2.0664-5.0078zm5.6289 11.129c1.3203-1.4414 2.2266-3.4648 2.3164-5.5898 0.085937-1.9883-0.45703-3.4922-1.4414-4.4219-0.11328-0.10547-0.23437-0.20703-0.35937-0.29688 0.089843 0.19531 0.16797 0.40234 0.23828 0.61328 0.44922 1.3516 0.47656 3.0352 0.48047 4.7227 0 1.4883-0.47266 3.3555-1.2344 4.9727zm-36.691 69.738c-0.28125 0.078125-0.56641 0.15625-0.85156 0.23438-0.019532 0.023437-0.039063 0.050781-0.0625 0.078125 0.28906-0.10156 0.59375-0.20703 0.91406-0.3125zm30.668-34.402c-0.039063 0.003906-0.078125 0.007812-0.11719 0.015625-1.1016 0.16797-2.4609 1.0039-4.0742 3.1328-2.043 2.6875-2.4961 4.8398-2 6.4961 0.10156 0.33984 0.24219 0.65625 0.41406 0.94922 0.16016-1.7578 0.97656-4.0352 2.2109-6.5117 1.0898-2.1797 2.4141-3.3984 3.5664-4.082zm1.7656 12.348c1.7148-0.94531 3.2188-2.5703 3.9844-4.5586 0.71875-1.8555 0.6875-3.4531 0.050781-4.6484-0.074218-0.14062-0.15625-0.27344-0.24609-0.39844 0.023438 0.21484 0.03125 0.4375 0.03125 0.66016-0.007812 1.4219-0.51953 3.0273-1.0586 4.6289-0.47266 1.4062-1.5195 3.0234-2.7617 4.3164zm-28.723-51.266c-0.625 0.84375-1.2852 2.2656-1.2891 4.5-0.003906 2.7773 0.25391 5.1523 1.0039 6.582 0.14453 0.28125 0.30859 0.52344 0.50391 0.70313 0.10938-0.97656 0.23047-2.6875 0.19922-5.3945-0.03125-2.7422-0.24219-4.9688-0.41797-6.3906zm2.1328 11.562c0.26953-0.28516 0.50781-0.65234 0.72266-1.0586 0.89063-1.6836 1.3477-4.1094 1.1133-5.8242-0.16797-1.1875-0.33203-2.3789-0.67578-3.3906-0.29297-0.85156-0.72656-1.5586-1.4805-1.9414 0.19531 1.4453 0.45312 3.918 0.48828 7.0195 0.03125 2.418-0.0625 4.0938-0.16797 5.1953zm13.352-5.1875c-0.62109 0.84375-1.2812 2.2656-1.2852 4.5039 0 2.7773 0.25781 5.1484 1.0039 6.582 0.14844 0.28125 0.3125 0.51953 0.50391 0.69922 0.11328-0.97266 0.23438-2.6836 0.19922-5.3906-0.03125-2.7422-0.24219-4.9727-0.42188-6.3945zm2.1406 11.566c0.26562-0.28906 0.50781-0.65234 0.72266-1.0625 0.89062-1.6836 1.3438-4.1094 1.1094-5.8242-0.16797-1.1875-0.33203-2.3789-0.67969-3.3906-0.29297-0.84766-0.72656-1.5586-1.4766-1.9414 0.19531 1.4492 0.45312 3.918 0.49219 7.0234 0.027344 2.4141-0.0625 4.0938-0.16797 5.1953zm11.41-24.508c-0.73047 0.75391-1.5781 2.0703-1.8867 4.2852-0.38281 2.7539-0.44922 5.1367 0.097657 6.6602 0.10547 0.29687 0.23828 0.55859 0.40625 0.76172 0.24219-0.94922 0.59375-2.6289 0.92969-5.3164 0.33984-2.7188 0.4375-4.957 0.45312-6.3906zm0.54297 11.75c0.30469-0.25 0.58984-0.57812 0.86328-0.95312 1.1094-1.5469 1.8906-3.8906 1.8906-5.6172-0.003906-1.2031-0.003906-2.4062-0.21094-3.4531-0.17188-0.88281-0.50781-1.6445-1.1992-2.125-0.003907 1.4609-0.085938 3.9453-0.46875 7.0234-0.30078 2.3984-0.62109 4.0469-0.875 5.125zm-1.3438 35.203c-0.93359 0.47656-2.1562 1.457-3.1562 3.457-1.2422 2.4844-2.0703 4.7227-2.0391 6.3359 0.003906 0.32031 0.046875 0.60547 0.13672 0.85156 0.53516-0.82031 1.4062-2.2969 2.5859-4.7344 1.1914-2.4688 2-4.5586 2.4727-5.9102zm-3.2461 11.305c0.36719-0.14063 0.74609-0.35938 1.1211-0.62891 1.5508-1.1094 3.0391-3.0781 3.5898-4.7148 0.38281-1.1406 0.76953-2.2773 0.91016-3.3398 0.11719-0.89062 0.042969-1.7188-0.45703-2.3945-0.47266 1.3828-1.3438 3.707-2.6953 6.5039-1.0508 2.1719-1.8828 3.6328-2.4688 4.5742zm-34.242-1.4766c-0.035157 0.046875-0.074219 0.10938-0.097657 0.16016-0.10156 0.21094-0.1875 0.47266-0.26562 0.78516-0.33984 1.4141-0.43359 3.7422-0.18359 7.0273 0.53906 7.1445 2.5156 11.023 3.8047 12.844 0.4375-2.9766 0.96484-9.1016-0.75391-15.309-0.69531-2.5078-1.4375-4.25-2.1445-5.1562-0.10547-0.13281-0.26172-0.26953-0.35937-0.35156zm7.7461-21.734c-1.4102-3.9609-4.0156-10.852-6.1055-14.094-0.80469-1.2422-1.5547-2.0625-2.2266-2.4102-0.27344-0.14062-0.51172-0.17578-0.66797 0.042968-0.17188 0.23828-0.28125 0.58984-0.35547 1.0352-0.14453 0.86328-0.12891 2.0234 0.074219 3.4805 0.34375 2.4688 2.2773 5.1133 4.4258 7.4297 1.6562 1.7852 3.457 3.3672 4.8555 4.5156zm4.1133-32.336c0.30078-0.19922 0.58594-0.42187 0.82422-0.66797 0.17188-0.17578 0.24609-0.44531 0.27734-0.58203-0.039063 0.011719-0.078125 0.027344-0.10938 0.046876-0.375 0.21875-0.70312 0.69922-0.99219 1.2031zm11.488 4.9336c0.023437 0.085938 0.10156 0.33594 0.25 0.51953 0.34766 0.44531 0.67578 0.80859 0.96875 1.1055-0.082032-0.35156-0.23047-0.73828-0.48828-1.1289-0.17969-0.26953-0.38281-0.44141-0.58984-0.49219-0.042969-0.007812-0.10547-0.007812-0.14062-0.003906zm-15.484-6.375c0.023437 0.082032 0.10547 0.33203 0.25 0.51953 0.34766 0.44141 0.67578 0.80859 0.96875 1.1055-0.082031-0.35547-0.23047-0.73828-0.48828-1.1328-0.17969-0.26953-0.38281-0.44141-0.58984-0.49219-0.042969-0.007812-0.10547-0.003906-0.14062 0zm8.3203 21.547c-0.019531 0.11328-0.039062 0.24219-0.042969 0.36719-0.027343 0.53125 0.007813 1.2266 0.10938 2.1172 0.27344 2.3828 1.5781 4.6719 3.0234 6.5742 0.80078 1.0547 1.6484 1.9883 2.4102 2.7539-0.90234-2.8984-2.2773-7.0039-3.4102-8.9531-0.61328-1.0586-1.3086-2.0859-1.9297-2.7148-0.046876-0.046874-0.10547-0.097656-0.16016-0.14453zm11.16-13.73c0.30078-0.19922 0.58594-0.42187 0.82422-0.66797 0.17188-0.17578 0.24609-0.44141 0.27734-0.58203-0.039062 0.011719-0.078125 0.03125-0.10938 0.046876-0.375 0.22266-0.70312 0.69922-0.99219 1.2031zm-15.469 37.027c2.0391-1.3906 4.9609-3.5742 6.0156-5.3242 0.625-1.0391 0.94922-2.3555 0.83203-3.2969-0.023438-0.17969-0.058594-0.34375-0.125-0.47656-0.023438-0.046875-0.039063-0.10156-0.089844-0.11328-0.14453-0.027344-0.31641 0.039062-0.53125 0.14844-0.39062 0.1875-0.83984 0.52344-1.3672 1.0195-2.4219 2.2734-3.9375 5.7344-4.7344 8.043zm-3.1367 8.9609c-0.76562-2-1.8477-4.6602-3.0117-6.9883-0.91016-1.8203-1.8516-3.4375-2.7422-4.3242-0.71484-0.71484-1.3984-1.1445-2.0039-1.2695-0.26562-0.054687-0.5-0.050781-0.67578 0.074219-0.18359 0.12891-0.27344 0.35938-0.31641 0.65625-0.10938 0.72266 0.10156 1.7188 0.67578 2.9648 1.4023 3.043 5.3945 6.6758 8.0742 8.8867zm32.805-10.41c0.35547-0.042969 0.71094-0.11328 1.0352-0.22656 0.23047-0.082031 0.41797-0.28906 0.50781-0.40234-0.039063-0.003906-0.082031-0.003906-0.12109-0.003906-0.43359 0.03125-0.9375 0.3125-1.4219 0.63281zm-13.723 23.031c2.9531 0.23437 7.4102 0.48828 11.258 0.3125 2.0742-0.097657 3.7852-0.83594 4.8125-1.7617 0.53125-0.47656 0.89063-0.97656 0.88672-1.457 0-0.26563-0.18359-0.48047-0.49609-0.65234-0.57422-0.3125-1.457-0.46484-2.6992-0.4375-4.6641 0.10156-10.379 2.418-13.762 3.9961zm13.574-71.16c0.32422-0.15625 0.64062-0.33594 0.91016-0.54688 0.19141-0.15234 0.30469-0.40625 0.35156-0.54297-0.039063 0.011718-0.078126 0.023437-0.11328 0.035156-0.40234 0.16797-0.78906 0.59766-1.1484 1.0547zm-36.105 85.414c2.6992 0.40625 6.6875 0.93359 10.727 1.1914 3.332 0.21094 6.7305-0.82812 8.2852-2.082 0.19531-0.15625 0.35547-0.31641 0.47266-0.47656 0.070313-0.097656 0.14453-0.17969 0.125-0.27344-0.007813-0.054688-0.058594-0.09375-0.10938-0.14453-0.10156-0.09375-0.23438-0.17578-0.39844-0.25781-0.55859-0.28125-1.3984-0.49609-2.5547-0.64453-5.6484-0.72656-12.586 1.2852-16.547 2.6875zm32.344-87.387c0.011719 0.085937 0.058594 0.34766 0.17578 0.55078 0.28516 0.48438 0.5625 0.89453 0.80859 1.2266-0.03125-0.35938-0.125-0.76172-0.32812-1.1836-0.14062-0.29297-0.32031-0.49219-0.51953-0.57031-0.039063-0.015624-0.10156-0.019531-0.13672-0.023437zm-16.984 73.406c1.043-2.5234 2.3672-5.8945 2.9336-8.0703 0.32812-1.2617 0.51172-2.5273 0.46875-3.4531-0.007813-0.15625-0.039063-0.33594-0.070313-0.48438-0.074218 0.050782-0.15234 0.10938-0.22266 0.17578-0.33984 0.3125-0.73438 0.77734-1.1953 1.4141-1.2617 1.7422-1.7383 4.2969-1.8945 6.7188-0.085937 1.3125-0.074218 2.5898-0.019531 3.6992zm17.961-26.375c-0.015624 0.082031-0.058593 0.34375-0.007812 0.57422 0.11328 0.55469 0.24219 1.0273 0.37109 1.4219 0.085937-0.35156 0.125-0.76172 0.066406-1.2266-0.039062-0.32422-0.14453-0.56641-0.30859-0.70703-0.03125-0.027344-0.089844-0.050781-0.12109-0.0625zm-5.8086-5.1797c2.9766-0.3125 7.3164-0.82422 9.0703-1.3438 0.96094-0.28516 1.9062-1.0508 2.3555-1.8477 0.17969-0.3125 0.33203-0.61719 0.16797-0.86328-0.085938-0.13281-0.25-0.22266-0.47266-0.30078-0.38281-0.13672-0.89453-0.20703-1.5508-0.20703-1.9648 0.003906-4.2031 1.0352-6.1992 2.2383-1.2656 0.75781-2.4297 1.5938-3.3711 2.3242z" fill-rule="evenodd"/>
<text x="0.0" y="117.5" font-size="5.0" font-weight="bold" font-family="Arbeit Regular, Helvetica, Arial-Unicode, Arial, Sans-serif" fill="#000000">Created by With ong today</text><text x="0.0" y="122.5" font-size="5.0" font-weight="bold" font-family="Arbeit Regular, Helvetica, Arial-Unicode, Arial, Sans-serif" fill="#000000">from Noun Project</text></svg>