<svg xmlns="http://www.w3.org/2000/svg" version="1.1" viewBox="-5.0 -10.0 110.0 135.0">
 <path d="m8.2617 48.629c-1.043-1.9609-1.207-3.5195-0.98047-4.7383 0.40234-2.1445 2.0547-3.3398 3.0273-3.9023 0.96875-0.55859 2.1016-0.57812 2.8945-0.49609 0.35547-0.96094 1.0742-2.4062 2.3555-3.0977 1.2344-0.66797 2.3672-0.64844 3.1094-0.51172 0.52344-0.72656 1.5352-1.7852 3.1953-2.2812 1.6602-0.49609 2.9727-0.054687 3.6992 0.32031 0.53516-0.29297 1.3789-0.68359 2.2461-0.82031 0.85547-0.12891 1.5156-0.082031 1.9336-0.011718 0.86719-0.52344 1.9453-0.91797 3.0742-0.51172 1.1172 0.39844 2.457 1.707 3.5703 5.1719 0.12891 0.40234 0.24219 0.82031 0.34375 1.25 0.023437 0.070312 0.039062 0.14062 0.046875 0.21484 1.3086 6.0117-0.35156 14.391-7.7031 17.922-0.054688 0.03125-0.10938 0.058593-0.16406 0.089843 0.89844 2.6289 3.1602 8.668 7.207 16.152-0.32813-3.2109-0.41406-7.6094 0.65625-11.914 0.44531-1.793 0.94141-3.0977 1.4336-3.9766 0.40234-0.72266 0.82812-1.1914 1.2148-1.4531 0.14844-0.10156 0.29297-0.17578 0.4375-0.23047l0.5-0.11719 0.52734 0.035156 0.48047 0.1875c0.42187 0.23828 0.84375 0.71484 1.1484 1.4727 0.50391 1.2383 0.78516 3.4141 0.57031 6.3203-0.51953 7.0352-3.5352 13.234-4.2031 14.527 1.4062 2.3398 2.9727 4.7695 4.7109 7.2383 0.41797-1.5 0.80469-2.9805 1.1602-4.4414 0.003906-0.015625 0.007813-0.03125 0.011719-0.042969 0.89062-3.6797 1.5898-7.2383 2.1289-10.645 0.003907-0.011719 0.003907-0.027344 0.007813-0.039063 0.64062-4.0547 1.0625-7.8906 1.3164-11.457-1.3633-0.58594-6.375-3.2461-8.5039-11.469-0.89062-3.4453-0.92578-5.9414-0.53516-7.457 0.36328-1.4258 1.1406-2.1406 1.9375-2.3281 0.59375-0.14453 1.2695-0.027344 1.9531 0.45312 0.70703 0.49609 1.4766 1.4609 2.1328 2.9414 1.2305 2.7891 2.4492 7.2656 3.332 10.902 0.19141-10.219-0.89062-17.152-1.1875-18.848-12.852 1.5898-17.668-7.8047-20.152-14.926-0.10937-0.30469-0.20312-0.59766-0.28516-0.88672-0.003906-0.011718-0.007812-0.027343-0.011718-0.042968-0.73047-2.5625-0.53906-4.4375 0.039062-5.8125 1.0078-2.3984 3.2422-3.3672 4.5156-3.7773 1.3398-0.43359 2.7422-0.10938 3.6367 0.21094 0.62891-1.0352 1.8594-2.6641 3.6094-3.1758 1.6836-0.48828 3.0469-0.12109 3.8555 0.24219 0.76562-0.71875 2.2461-1.7891 4.4102-1.957 2.1367-0.16797 3.582 0.75391 4.2969 1.3711 0.69141-0.21484 1.8477-0.49609 2.957-0.42969 1.0938 0.066406 1.8828 0.3125 2.3398 0.50391 1.1367-0.40625 2.5-0.62891 3.7148 0.12891 1.2109 0.75391 2.418 2.6367 2.8477 6.9805 0.050781 0.51562 0.082031 1.0469 0.089844 1.5859 0.007812 0.082031 0.011718 0.16406 0 0.24219 0.019531 7.4883-4.0898 17.047-13.746 19.363-0.046875 0.015625-0.09375 0.027344-0.14453 0.042969 0.45703 2.6133 2.5234 16.16 0.019532 34.766 2.9883-3.2383 5.6016-6.2812 7.8711-9.0742-0.35156-2.2422-1.8164-12.363-0.80469-18.77 0.39062-2.4609 1.1836-3.9219 1.9883-4.6367 0.76953-0.6875 1.6016-0.83203 2.3594-0.61328 0.67188 0.19531 1.3242 0.72266 1.7891 1.5742 0.55078 1.0117 0.85547 2.5352 0.59375 4.3789-0.47266 3.3438-1.8945 9.8477-2.8828 14.203 6.0508-7.9258 8.8477-13.133 9.2539-13.914-8.7578-5.4258-7.207-13.801-5.2734-19.598 0.082031-0.25 0.16797-0.49219 0.26172-0.71875 0.003906-0.011719 0.007812-0.027343 0.015625-0.042969 0.82422-2.0586 1.9102-3.1914 2.9883-3.8047 1.8984-1.0781 3.8789-0.58203 4.9336-0.20312 1.0547 0.37891 1.8008 1.2305 2.2461 1.8906 0.96484-0.34766 2.5312-0.73047 3.8867-0.19531 1.3086 0.51172 2.0234 1.3906 2.3984 2.043 0.89453-0.066406 2.3516 0.023438 3.8047 0.97266 1.4492 0.94922 1.9609 2.2344 2.1406 3.0312 0.56641 0.22266 1.4141 0.61328 2.0742 1.1914 0.65234 0.56641 1.0391 1.1055 1.2578 1.4688 0.95703 0.32422 1.9531 0.89453 2.375 2.0156 0.41406 1.1133 0.27734 2.9805-1.6523 6.0664-0.22266 0.35938-0.46875 0.71484-0.73438 1.0664-0.035157 0.066407-0.082031 0.125-0.13281 0.17578-3.75 4.8789-11.223 9.0156-18.664 5.6758-0.058594-0.023438-0.11719-0.046875-0.17188-0.070313-0.40234 0.76562-2.2383 4.1562-5.9102 9.3789 3.8008-1.6055 10.656-4.0938 15.785-3.6875 1.5117 0.12109 2.4922 0.38672 3.0625 0.70312 0.29297 0.16016 0.50391 0.34375 0.66016 0.53125l0.24219 0.37891 0.13672 0.44141c0.097657 0.64062-0.24609 1.4648-1.1562 2.2188-1.4727 1.2188-4.5625 2.543-7.2031 3.1797-5.5781 1.3438-12.32-0.16016-13.863-0.53906-3.4688 4.6641-8.1328 10.375-14.191 16.754-0.33594 2.0938-0.73047 4.2422-1.1953 6.4414 3.6055-4.1016 10.461-11.062 18.336-14.859 4.2656-2.0547 7.0938-2.75 8.5625-2.5703 1.0664 0.12891 1.6523 0.64844 1.9062 1.3203 0.21094 0.5625 0.17969 1.3438-0.25781 2.2812-0.71484 1.5391-2.6133 3.7422-5.6211 6.2344-8.25 6.8359-23.977 12.301-23.977 12.301-0.011719 0.003906-0.019531 0.007812-0.03125 0.011718-1.1445 4.625-2.5977 9.4297-4.418 14.352-0.19141 0.51562-0.76953 0.78125-1.2852 0.58984-0.51953-0.19141-0.78125-0.76562-0.58984-1.2852 0.98047-2.6523 1.8555-5.2695 2.6289-7.8438-3.1406-4.3359-5.7656-8.582-7.9219-12.48-7.9102 0.45703-14.594-1.5977-18.5-3.8359-1.8477-1.0586-3.0977-2.1875-3.6562-3.125-0.49219-0.82422-0.53125-1.5781-0.26172-2.1758 0.33203-0.73828 1.3164-1.4297 3.2461-1.4688 3.1562-0.066406 7.0625 1.3242 10.602 3.0508 2.4883 1.2148 4.7891 2.5859 6.5117 3.6797-3.1758-6.2461-5.0352-11.215-5.8633-13.617-9.793 3.1914-15.191-3.3945-18.375-8.6094-0.13672-0.22656-0.26562-0.44531-0.37891-0.66406-0.007812-0.011719-0.015625-0.027344-0.023437-0.039063zm25.195-12.746c-0.10547-0.1875-0.21094-0.35937-0.32031-0.51562-0.34375-0.49609-0.66406-0.78906-0.99609-0.90625-0.63281-0.23047-1.1953 0.21484-1.6445 0.52344-0.26172 0.17578-0.59375 0.22266-0.89062 0.11719 0 0-0.55859-0.16406-1.4922-0.023437-1.0234 0.16016-1.9961 0.83594-1.9961 0.83594-0.36719 0.25391-0.85938 0.23438-1.2031-0.050781 0 0-1.0039-0.78516-2.4766-0.34375-1.7383 0.51562-2.4023 1.9414-2.4023 1.9414-0.11328 0.24609-0.31641 0.4375-0.56641 0.53125-0.25391 0.089843-0.53516 0.078124-0.77734-0.035157 0 0-1.0039-0.44141-2.1797 0.19531-0.49219 0.26562-0.82812 0.73047-1.0703 1.1758-0.41797 0.75391-0.5625 1.4961-0.5625 1.4961-0.054687 0.28125-0.22656 0.52344-0.47266 0.66797-0.24609 0.14844-0.54297 0.17969-0.8125 0.09375 0 0-1.2891-0.4375-2.2852 0.13672-0.64453 0.37109-1.7969 1.1133-2.0625 2.5352-0.058594 0.32422-0.074219 0.67578-0.03125 1.0664 0.28906-0.25781 0.64844-0.45312 1.0898-0.5625 1.0508-0.25 2.3555-0.007813 3.2188 0.22266 0.19531-0.40234 0.46094-0.89453 0.79687-1.3672 0.58203-0.82031 1.3672-1.5547 2.2852-1.8281 1.0977-0.33203 2.082-0.035156 2.8203 0.38281 0.35938-0.92578 1.0469-1.9883 2.3555-2.5352 1.3477-0.56641 2.6289-0.20703 3.4766 0.20703 0.21484-0.35156 0.48828-0.75391 0.80078-1.1328 0.63281-0.77344 1.4492-1.4258 2.2891-1.6055 1.0078-0.21484 1.7969 0.054687 2.3672 0.43359 0.097656-0.14844 0.20312-0.29687 0.32031-0.44141 0.53906-0.66406 1.2695-1.1758 2.0859-1.2227 0.10938-0.007812 0.22266-0.003906 0.33594 0.007812zm-0.29688 14.973c2.0977-3.4453 2.418-7.7695 1.668-11.199-0.125-0.23828-0.45312-0.80859-0.88281-1.2773-0.125-0.13672-0.26172-0.26562-0.40234-0.36719-0.10156-0.070313-0.19531-0.14844-0.30859-0.14062-0.26953 0.015625-0.46484 0.26172-0.64453 0.48438-0.4375 0.54297-0.69141 1.2031-0.69141 1.2031-0.13672 0.36719-0.47656 0.61719-0.86719 0.64453-0.38672 0.023437-0.75781-0.17969-0.94531-0.51953 0 0-0.43359-0.8125-1.3164-0.62109-0.44922 0.09375-0.82812 0.50781-1.168 0.91797-0.64453 0.78516-1.0703 1.6875-1.0703 1.6875-0.13281 0.28516-0.39453 0.48828-0.69922 0.55469-0.30859 0.0625-0.62891-0.023437-0.86719-0.23047 0 0-1.1406-1.043-2.4141-0.51172-1.4961 0.62891-1.5234 2.4727-1.5234 2.4727-0.015625 0.41797-0.28906 0.78516-0.6875 0.91406-0.39844 0.13281-0.83594 0-1.0938-0.32813 0 0-0.25-0.30469-0.66016-0.56641-0.35156-0.22656-0.84375-0.4375-1.4062-0.26953-0.50781 0.15625-0.90234 0.61328-1.2266 1.0703-0.59766 0.83984-0.92188 1.7617-0.92188 1.7617-0.089844 0.25781-0.28125 0.46875-0.52734 0.58203-0.25 0.11328-0.53125 0.11719-0.78516 0.019531 0 0-1.7148-0.72266-2.9492-0.42969-0.33594 0.082031-0.44531 0.39844-0.51562 0.65625-0.0625 0.21484-0.085937 0.42188-0.09375 0.56641 0.066406 0.11719 0.13672 0.23828 0.21094 0.35937 2.2539 3.6914 5.7188 8.2773 11.48 8.457-0.625-0.26562-1.2461-0.57812-1.8477-0.91797-3.8438-2.1523-7.0898-5.3594-7.0898-5.3594-0.39062-0.39062-0.39453-1.0234-0.007812-1.4141 0.39062-0.39453 1.0234-0.39844 1.4141-0.007813 0 0 3.0508 3.0156 6.6602 5.0391 0.44531 0.24609 0.89453 0.48437 1.3516 0.69922-2.5625-2.5234-4.8359-5.8984-4.8359-5.8984-0.30859-0.45703-0.1875-1.082 0.26953-1.3906 0.46094-0.30469 1.082-0.18359 1.3906 0.27344 0 0 2.9805 4.4531 5.8672 6.7422 0.44531 0.35156 0.88281 0.65234 1.3086 0.85938l-2.9336-9.2422c-0.16797-0.52734 0.125-1.0898 0.65234-1.2539 0.52344-0.16797 1.0859 0.125 1.2539 0.64844l2.9453 9.2852c0.19531-0.46094 0.32031-1.0195 0.40625-1.6367 0.50781-3.6797-0.46875-9.1719-0.46875-9.1719-0.09375-0.54297 0.26953-1.0625 0.8125-1.1602 0.54297-0.09375 1.0625 0.26953 1.1602 0.8125 0 0 0.74609 4.2969 0.62109 7.9961 0.14062-0.36328 0.26953-0.73828 0.39062-1.1211 1.1953-3.832 1.3477-8.1797 1.3477-8.1797 0.019531-0.55078 0.48438-0.98438 1.0352-0.96484 0.55469 0.019532 0.98437 0.48438 0.96484 1.0352 0 0-0.16406 4.418-1.3594 8.4375zm-4.2617-33.961c0.054687 0.18359 0.11719 0.37109 0.18359 0.55859 1.875 5.3711 5.1367 12.289 12.949 13.555-1.0156-0.63672-2.0039-1.3984-2.9414-2.2266-4.0391-3.5664-7.0977-8.2461-7.0977-8.2461-0.30078-0.46094-0.17188-1.082 0.28906-1.3828 0.46484-0.30078 1.082-0.17188 1.3867 0.28906 0 0 2.9062 4.4492 6.7461 7.8438 0.80859 0.71484 1.6602 1.3867 2.5312 1.957-2.7656-3.7812-5.0078-9.3789-5.0078-9.3789-0.20703-0.51562 0.042969-1.0977 0.55859-1.3008 0.51172-0.20312 1.0938 0.046875 1.2969 0.55859 0 0 2.4531 6.1719 5.3516 9.6953 0.56641 0.69141 1.1484 1.2773 1.7344 1.668 0.027344 0.015625 0.050782 0.03125 0.074219 0.046875l-1.1797-12.391c-0.050782-0.55078 0.35156-1.0391 0.90234-1.0898 0.54688-0.054687 1.0391 0.35156 1.0898 0.89844l1.1875 12.5c0.078125-0.078125 0.14844-0.16406 0.22266-0.25391 0.42578-0.53906 0.77734-1.2773 1.0859-2.1172 1.5781-4.3203 1.832-11.227 1.832-11.227 0.019531-0.55469 0.48438-0.98437 1.0391-0.96094 0.55078 0.019531 0.98047 0.48438 0.96094 1.0352 0 0-0.25781 6.457-1.6758 11.016 0.55469-0.72266 1.0703-1.5234 1.5391-2.3555 2.4531-4.3281 3.7734-9.5547 3.7734-9.5547 0.13672-0.53516 0.67969-0.85938 1.2148-0.72266 0.53516 0.13672 0.85938 0.67969 0.72266 1.2148 0 0-1.6328 6.418-4.625 11.145 4.3125-3.6523 6.1914-9.5078 6.1719-14.367-0.089844-0.30859-0.34375-1.1328-0.76562-1.8516-0.15234-0.25391-0.32031-0.5-0.51953-0.6875-0.11328-0.10156-0.22656-0.19531-0.36719-0.21875-0.39062-0.058594-0.75781 0.20703-1.082 0.46875-0.69922 0.55859-1.1914 1.3203-1.1914 1.3203-0.21484 0.32812-0.59766 0.50391-0.98437 0.44531-0.38672-0.054688-0.70313-0.33203-0.81641-0.70703 0 0-0.36328-1.2539-1.6484-1.2539-0.60938-0.003906-1.2305 0.41406-1.7852 0.85156-1.0039 0.79688-1.7656 1.7969-1.7656 1.7969-0.19141 0.25-0.48828 0.39453-0.80078 0.39062-0.31641 0-0.60938-0.15234-0.79688-0.40234 0 0-1.1992-1.6719-3.0039-1.3359-2.1016 0.39453-2.6562 2.75-2.6562 2.75-0.10547 0.40625-0.44922 0.70703-0.86719 0.75391-0.41406 0.042968-0.81641-0.17578-1-0.55469 0 0-0.23437-0.46484-0.6875-0.91406-0.41016-0.40625-1.0078-0.82031-1.8086-0.75391-0.69922 0.054687-1.3477 0.52734-1.8945 1.0273-0.95703 0.87891-1.6055 1.9336-1.6055 1.9336-0.14062 0.23047-0.37109 0.39844-0.63672 0.45312-0.26562 0.058594-0.54688 0.007812-0.77344-0.14453 0 0-1.9492-1.3516-3.5703-1.3164-0.52344 0.011719-0.80469 0.41797-0.99219 0.77344-0.15625 0.29297-0.25 0.58594-0.29687 0.76953zm31.766-8.0508c-0.11719-0.45312-0.24609-0.85156-0.39062-1.1992-0.30859-0.74219-0.65625-1.2109-1.0547-1.457-0.77344-0.48047-1.6445-0.09375-2.3281 0.18359-0.29297 0.12109-0.625 0.09375-0.89453-0.070313 0 0-0.66406-0.375-1.8945-0.44922-1.3242-0.078124-2.7227 0.50781-2.7227 0.50781-0.41406 0.16797-0.89062 0.042969-1.168-0.30859 0 0-1.0703-1.3008-3.0898-1.1445-2.3359 0.18359-3.5664 1.8125-3.5664 1.8125-0.15625 0.21484-0.39844 0.35938-0.66406 0.39844-0.26562 0.035156-0.53516-0.035157-0.75-0.19922 0 0-1.1797-0.86328-2.8828-0.36719-0.70312 0.20312-1.2656 0.70312-1.7031 1.2031-0.72266 0.83203-1.1055 1.7188-1.1055 1.7188-0.10938 0.26172-0.32812 0.46484-0.60156 0.55469-0.26953 0.089844-0.56641 0.0625-0.8125-0.078125 0 0-1.5352-0.91406-2.9727-0.45312-0.91016 0.29297-2.5586 0.92969-3.2812 2.6484-0.21484 0.51172-0.34375 1.1133-0.35938 1.8164 0.45703-0.35547 1.0234-0.59375 1.7227-0.60938 1.3711-0.03125 2.9336 0.66406 3.875 1.1641 0.34375-0.45703 0.82812-1.0352 1.4062-1.5625 0.875-0.80469 1.9609-1.4609 3.0859-1.5508 1.457-0.11328 2.5742 0.58594 3.3203 1.3125 0.63281-1.0352 1.7227-2.2344 3.4922-2.5625 1.8008-0.33594 3.2539 0.51953 4.1133 1.2383 0.36328-0.39453 0.83984-0.86719 1.3789-1.2891 0.91797-0.73047 2.0117-1.2891 3.0273-1.2852 1.3086 0 2.1797 0.60156 2.7305 1.2383 0.19531-0.20313 0.41406-0.41016 0.65234-0.60156 0.76953-0.62109 1.7148-1.0273 2.6445-0.88281 0.27734 0.042969 0.54297 0.13672 0.79297 0.27344zm5.6055 12.414c-0.046875 0.125-0.09375 0.25781-0.13672 0.39063-1.3672 4.1055-2.6367 9.7148 0.9375 14.23-0.19531-0.64844-0.35937-1.3242-0.48828-2.0039-0.83203-4.3242-0.47266-8.875-0.47266-8.875 0.042969-0.54688 0.52344-0.96094 1.0742-0.91797 0.55078 0.042969 0.96094 0.52734 0.91797 1.0781 0 0-0.33594 4.2734 0.44531 8.3359 0.09375 0.5 0.20703 1 0.33594 1.4844 0.27734-3.5859 1.3867-7.5 1.3867-7.5 0.15234-0.53125 0.70703-0.83984 1.2383-0.6875 0.52734 0.15234 0.83594 0.70703 0.6875 1.2344 0 0-1.4805 5.1523-1.3672 8.832 0.015625 0.57031 0.070313 1.0977 0.18359 1.5586l5.1719-8.2031c0.29688-0.46875 0.91406-0.60547 1.3789-0.3125 0.46875 0.29297 0.60938 0.91016 0.3125 1.3789l-5.1914 8.2383c0.47266-0.14844 0.98438-0.41406 1.5117-0.74609 3.1406-1.9844 6.707-6.2734 6.707-6.2734 0.35156-0.42188 0.98438-0.48047 1.4062-0.125 0.42578 0.35156 0.48438 0.98438 0.12891 1.4062 0 0-2.8008 3.3438-5.7109 5.6367 0.37109-0.12891 0.74219-0.27344 1.1094-0.42969 3.7031-1.5547 7.125-4.2422 7.125-4.2422 0.43359-0.33984 1.0625-0.26562 1.4023 0.16797 0.33984 0.43359 0.26562 1.0625-0.16797 1.4062 0 0-3.4805 2.7227-7.3242 4.3984 3.9844-0.61719 7.4961-3.1602 9.6328-5.9453 0.10156-0.25 0.32422-0.87109 0.40625-1.5 0.023438-0.18359 0.035156-0.37109 0.019532-0.54297-0.007813-0.125-0.011719-0.24609-0.089844-0.32422-0.1875-0.19922-0.5-0.1875-0.78906-0.17969-0.69531 0.011719-1.3633 0.24609-1.3633 0.24609-0.36719 0.12891-0.77734 0.03125-1.0469-0.25-0.27344-0.27734-0.35547-0.69141-0.21484-1.0547 0 0 0.33984-0.85938-0.375-1.4102-0.36328-0.28125-0.92578-0.30469-1.457-0.29687-1.0156 0.011718-1.9805 0.26953-1.9805 0.26953-0.30078 0.082031-0.625 0.015625-0.875-0.17969-0.24609-0.19141-0.38672-0.49219-0.38281-0.80469 0 0 0.0625-1.5508-1.1641-2.1758-1.4453-0.74219-2.8711 0.42578-2.8711 0.42578-0.33203 0.26172-0.78516 0.28906-1.1445 0.066406-0.35547-0.21875-0.53906-0.63672-0.45703-1.0469 0 0 0.074219-0.39062 0.011719-0.86719-0.054688-0.41797-0.21094-0.92969-0.70312-1.25-0.44531-0.29297-1.0508-0.29688-1.6094-0.25-1.0273 0.085937-1.9414 0.43359-1.9414 0.43359-0.25391 0.097657-0.53516 0.085938-0.78516-0.03125-0.24609-0.11328-0.43359-0.32812-0.51953-0.58594 0 0-0.55469-1.7734-1.5742-2.5273-0.28125-0.20703-0.59375-0.085938-0.83594 0.027344-0.20312 0.089844-0.375 0.20703-0.49219 0.29297zm24.234 10.035c0.074219-0.20312 0.13672-0.39453 0.1875-0.57812 0.15625-0.58203 0.17188-1.0156 0.050782-1.3477-0.23828-0.63281-0.9375-0.77344-1.4648-0.91797-0.30469-0.085938-0.55078-0.3125-0.66406-0.60547 0 0-0.23438-0.53516-0.94531-1.1523-0.77734-0.67969-1.9258-0.98828-1.9258-0.98828-0.42969-0.11719-0.73047-0.50781-0.73438-0.95312 0 0-0.050781-1.2734-1.3359-2.1172-1.5156-0.99219-3.0352-0.58203-3.0352-0.58203-0.25781 0.074219-0.53516 0.042969-0.76953-0.089843-0.23438-0.13281-0.40234-0.35547-0.47266-0.61719 0 0-0.3125-1.0508-1.5586-1.5391-0.51953-0.20313-1.0898-0.16016-1.5859-0.058594-0.84766 0.16797-1.5078 0.53516-1.5078 0.53516-0.25 0.13672-0.54688 0.16406-0.81641 0.070312s-0.48438-0.29687-0.59375-0.5625c0 0-0.49609-1.2656-1.5781-1.6562-0.69922-0.25391-2.0117-0.65234-3.2656 0.058594-0.28906 0.16406-0.56641 0.38281-0.83594 0.66406 0.38281 0.054687 0.76562 0.20312 1.1328 0.47266 0.86719 0.64062 1.5234 1.793 1.9062 2.6016 0.43359-0.11328 0.98047-0.22656 1.5586-0.27344 1-0.085938 2.0664 0.042969 2.8672 0.56641 0.96484 0.625 1.3711 1.5703 1.5273 2.4023 0.94141-0.32031 2.1992-0.48047 3.457 0.16406 1.3047 0.66797 1.8555 1.8789 2.0859 2.793 0.40625-0.0625 0.89062-0.11719 1.3828-0.12109 1-0.011719 2.0234 0.1875 2.7031 0.71484 0.8125 0.62891 1.1133 1.4062 1.1953 2.0898 0.17578-0.023437 0.35938-0.035156 0.54297-0.039063 0.85938-0.019531 1.7188 0.21094 2.2773 0.80078 0.078126 0.082031 0.14844 0.17188 0.21484 0.26562zm-50.047 26.488c-0.097656 0.097656-0.23828 0.25-0.34375 0.41016-0.48438 0.74609-0.95703 1.9805-1.3984 3.7539-1.1953 4.8164-0.85547 9.75-0.42578 12.797 1.0703-2.5859 2.4727-6.707 2.8008-11.188 0.16016-2.1602 0.042968-3.8594-0.27734-4.9766-0.082031-0.30078-0.25391-0.62109-0.35547-0.79688zm18.07-4.6914c0.96094-4.2539 2.1992-9.9805 2.6289-13.039 0.1875-1.3242 0.023438-2.4219-0.37109-3.1445-0.16406-0.30469-0.35156-0.53906-0.58984-0.60938-0.24219-0.070313-0.45703 0.12109-0.69141 0.42188-0.48438 0.61719-0.875 1.668-1.1211 3.2188-0.61719 3.8945-0.27734 9.207 0.14453 13.152zm-11.07 3.0117c-0.76562-3.5156-2.4062-10.516-4.082-14.309-0.39844-0.89453-0.82422-1.5508-1.2578-1.9531-0.20313-0.1875-0.35938-0.34766-0.53516-0.30859-0.089843 0.023438-0.14062 0.11719-0.20703 0.22266-0.10547 0.17188-0.19141 0.39453-0.25781 0.66016-0.33984 1.3125-0.23828 3.4727 0.53516 6.4609 1.3633 5.2734 4.0312 7.9609 5.8047 9.2266zm1.2656 23.059c4.8008-1.8555 14.648-6.0156 20.559-10.91 2.332-1.9336 3.957-3.6523 4.7773-4.9805 0.22656-0.36719 0.38672-0.69531 0.46484-0.98438 0.027343-0.089844 0.035156-0.21875 0.039062-0.27344-0.046875-0.019531-0.13672-0.050781-0.20703-0.0625-0.16016-0.027344-0.34766-0.03125-0.5625-0.019531-1.4141 0.074218-3.7031 0.82812-6.9609 2.3984-7.9141 3.8125-14.758 10.953-18.109 14.832zm-34.34-12.039c0.003907 0.023437 0.007813 0.050781 0.015626 0.074218 0.03125 0.089844 0.082031 0.1875 0.14062 0.28516 0.19922 0.31641 0.50781 0.64844 0.91406 1 2.6445 2.2891 8.9023 4.9102 16.77 5.0156-1.7031-1.0977-4.1016-2.5469-6.707-3.8164-3.2383-1.582-6.7969-2.9141-9.6875-2.8516-0.48047 0.007813-0.87109 0.058594-1.1719 0.15625-0.10156 0.035156-0.22266 0.10547-0.27344 0.13672zm68.742-17.438c-0.078125-0.039063-0.17578-0.078125-0.26953-0.10938-0.44922-0.14062-1.0664-0.24219-1.8789-0.30859-4.8281-0.38281-11.27 1.9883-14.859 3.5234 2.6641 0.45313 6.7344 0.85156 10.293-0.007812 2.3398-0.5625 5.0938-1.6953 6.3984-2.7734 0.11328-0.09375 0.23047-0.22266 0.31641-0.32422z" fill-rule="evenodd"/>
</svg>