<svg xmlns="http://www.w3.org/2000/svg" version="1.1" viewBox="-5.0 -10.0 110.0 135.0">
 <path d="m42.379 65.48c-10.988-1.2656-17.574-5.1914-21.543-9.418-6.1328-6.5352-6.0703-13.871-6.0703-13.871 0-0.51562 0.39844-0.94531 0.91406-0.99219 7.625-0.64844 13.68 2.9258 18.188 7.4805 2.6211 2.6523 4.7148 5.6328 6.2852 8.2656-2.3984-9.707-3.7266-16.895-4.1523-19.32-2.7695 0-4.875-1.5312-5.7305-2.2734-2.4375 0.46875-4.3398 0.45703-6.0469 0.027344-1.9258-0.48438-3.6211-1.5039-5.5352-3.0312-1.5859-1.2656-2.4375-2.707-2.6172-3.8516-0.16406-1.0469 0.16406-1.918 0.89844-2.4844 0.60938-0.46875 1.5859-0.74609 2.9648-0.54688 0.4375 0.066406 0.92969 0.17969 1.4688 0.34766-1.1094-1.3008-2.1445-2.7109-2.6836-3.9609-0.51562-1.1836-0.59766-2.2656-0.21484-3.0938 0.28125-0.62109 0.8125-1.1484 1.7148-1.4805 2.1367-0.78516 4.207 0.22266 5.9258 1.9727-0.16406-0.75-0.28516-1.4766-0.33594-2.1367-0.082032-0.98828-0.007813-1.8516 0.22656-2.4883 0.33594-0.90625 0.96484-1.4609 1.918-1.5742 1.4258-0.17188 2.8203 0.81641 3.9336 2.4961 0.41406 0.62109 0.79688 1.332 1.1445 2.0742 0.0625-0.92578 0.19141-1.8242 0.40625-2.6055 0.54688-1.9844 1.6797-3.2539 3.4141-3.2227 1.7383 0.03125 2.8203 1.332 3.3008 3.3242 0.33984 1.4258 0.37109 3.2227 0.28516 4.8711 0.45312-0.58984 0.94922-1.1445 1.4648-1.5703 1.2031-0.99609 2.5195-1.3398 3.7578-0.66016 0.61719 0.33594 1 0.89453 1.1289 1.6484 0.13281 0.77344-0.039062 1.832-0.50781 3.0312-0.94141 2.4102-3.082 5.5117-5.4531 7.8828-0.14062 0.14063-0.28125 0.27734-0.42188 0.41016 0.10547 0.80859 0.21875 2.3398-0.13672 3.7031-0.32422 1.2539-1.0117 2.3633-2.293 2.875 0.72656 4.1406 4.0742 22.098 10.875 42.727 0.66797-9.8086 2.5703-19.938 4.6719-28.727v-0.015625s0.12109-0.95312 0.59766-2.4414c2.2617-9.0469 4.6406-16.414 5.8984-20.113-1.3438-0.49219-2.0586-1.625-2.3906-2.9102-0.35547-1.3633-0.24219-2.8945-0.13672-3.7031-0.14063-0.13281-0.28125-0.26953-0.42188-0.41016-2.3711-2.3711-4.5117-5.4766-5.4531-7.8828-0.46875-1.1992-0.64063-2.2578-0.50781-3.0312 0.12891-0.75391 0.51172-1.3125 1.1289-1.6523 1.2383-0.67969 2.5547-0.33203 3.7578 0.66406 0.51562 0.42578 1.0117 0.97656 1.4648 1.5703-0.085938-1.6484-0.054688-3.4453 0.28906-4.875 0.47266-1.9883 1.5586-3.293 3.2969-3.3203 1.7344-0.03125 2.8672 1.2383 3.4141 3.2227 0.21484 0.78125 0.34375 1.6797 0.40625 2.6055 0.34766-0.74219 0.73047-1.4531 1.1445-2.0742 1.1133-1.6797 2.5078-2.668 3.9336-2.4961 0.95313 0.11328 1.582 0.66797 1.918 1.5742 0.23438 0.63672 0.30859 1.4961 0.22656 2.4883-0.050782 0.66016-0.17188 1.3867-0.33594 2.1367 1.7188-1.75 3.793-2.7617 5.9258-1.9727 0.90234 0.33203 1.4336 0.85938 1.7148 1.4805 0.38281 0.82812 0.30078 1.9102-0.21484 3.0938-0.53906 1.25-1.5742 2.6602-2.6836 3.9609 0.53906-0.16797 1.0312-0.28516 1.4688-0.34766 1.3789-0.19922 2.3555 0.078125 2.9648 0.54688 0.73437 0.56641 1.0625 1.4375 0.89844 2.4844-0.17969 1.1445-1.0312 2.5859-2.6172 3.8516-1.9141 1.5273-3.6094 2.5469-5.5352 3.0312-1.707 0.42969-3.6094 0.44141-6.0469-0.03125-0.84375 0.73047-2.8906 2.2227-5.5898 2.2734-0.84766 2.4805-2.3086 6.9102-3.9023 12.539 0.89453-1.0898 1.957-2.1758 3.2266-3.2148 4.5273-3.7031 11.66-6.7539 22.895-6.5078 0.34766 0.007813 0.66406 0.19141 0.83984 0.49219 0.17578 0.29688 0.18359 0.66406 0.023438 0.97266 0 0-4.3633 8.2969-11.809 14.07-4.8438 3.7539-10.98 6.4336-18.043 5.2188-2.3633 10.039-4.4219 21.73-4.6562 32.637 0.35547 1.0078 0.71875 2.0156 1.0859 3.0312 0.52734-4.0039 1.8633-10.977 5.168-17.453 3.4023-6.668 8.8711-12.793 17.586-14.777 0.50781-0.11719 1.0156 0.17187 1.1758 0.66797 0 0 2.6602 8.125-1.8438 17.562-2.9102 6.1016-8.832 12.789-20.551 18.094 0.39844 1.0312 0.80078 2.0625 1.2148 3.0938 0.20703 0.51172-0.042969 1.0938-0.55469 1.3008-0.51172 0.20703-1.0938-0.042969-1.3008-0.55469-0.67969-1.6953-1.3359-3.3906-1.9688-5.0781-10.801-1.3008-17.305-5.1953-21.234-9.3828-6.1289-6.5352-6.0703-13.867-6.0703-13.867 0-0.51953 0.39844-0.94922 0.91406-0.99219 7.625-0.65234 13.68 2.9219 18.188 7.4766 1.5273 1.543 2.875 3.1992 4.043 4.832-1.543-4.7695-2.9023-9.3789-4.0859-13.695zm-3.2891-6.3906c-1.5508-2.7578-3.7617-6.0898-6.6445-9.0039-3.1836-3.2188-7.2031-5.9375-12.082-6.7266 3.4375 1.8555 7.0391 4.6172 10.324 7.5156 3.2656 2.8828 6.2266 5.8906 8.4023 8.2148zm-21.586-12.691c0.70312 2.3633 2.0859 5.4141 4.7891 8.293 2.3281 2.4766 5.6172 4.8203 10.266 6.5195-2.4062-1.4766-4.6328-3.2578-6.6328-5.1172-3.6797-3.4297-6.5898-7.1289-8.4219-9.6953zm15.316-11.66c0.94531 0.54297 2.2852 1.0391 3.8555 0.84766 0.007813-0.003907 0.019531-0.003907 0.03125-0.003907 0.99219-0.12891 1.4219-0.86328 1.6289-1.6523 0.13672-0.53125 0.18359-1.0977 0.18359-1.6094-0.89844 0.65625-1.7852 1.1562-2.6094 1.4414-1.1133 0.38672-2.1367 0.71094-3.0898 0.97656zm5.8789-5.1484c0.24219-0.21875 0.48047-0.44922 0.71484-0.68359 2.168-2.168 4.1445-4.9961 5.0078-7.1992 0.26172-0.67578 0.42578-1.2812 0.41406-1.7695-0.003907-0.18359 0-0.35156-0.14063-0.42969-0.28516-0.15625-0.57812-0.10937-0.86719 0.023438-0.47656 0.22266-0.93359 0.64062-1.3633 1.1289-1.5 1.6953-2.6328 4.2227-2.6328 4.2227-0.20703 0.46484-0.72656 0.69531-1.2109 0.54297-0.48438-0.15234-0.77734-0.64062-0.68359-1.1406 0 0 0.76953-4.0234 0.48828-7.2617-0.082031-0.96875-0.25391-1.8594-0.60547-2.5117-0.22656-0.41406-0.53125-0.71094-1.0039-0.71875-0.84375-0.015625-1.1875 0.79297-1.4492 1.7539-0.90625 3.2773-0.046876 8.7773-0.046876 8.7773 0.082032 0.52734-0.27344 1.0273-0.80078 1.1328-0.52344 0.10156-1.0391-0.23047-1.1602-0.75391 0 0-1.1953-5.125-3.1367-8.0508-0.36328-0.54297-0.74609-1.0078-1.1602-1.3164-0.27734-0.20313-0.5625-0.33594-0.87109-0.30078-0.22656 0.027344-0.28516 0.25-0.33984 0.49609-0.089843 0.39453-0.09375 0.88281-0.050781 1.4219 0.25781 3.1797 2.1797 7.9883 2.7188 9.293 0.074219 0.17188 0.12109 0.28906 0.14062 0.33594l0.011719 0.023438c0.20312 0.51172-0.042969 1.0859-0.54688 1.2969-0.50781 0.20703-1.0859-0.027344-1.3008-0.53125l-0.011719-0.023438-0.12109-0.29688c-0.39453-0.91797-1.6953-3.7852-3.5078-5.8906-1.2305-1.4297-2.668-2.5977-4.2734-2.0078-0.29297 0.10938-0.5 0.23828-0.58984 0.4375-0.18359 0.39844-0.011718 0.90234 0.23047 1.4688 1.4141 3.2578 6.5117 7.668 6.5117 7.668 0.39844 0.34766 0.45703 0.94141 0.13672 1.3594-0.31641 0.41797-0.90625 0.51953-1.3438 0.22656-2.7148-1.7891-4.7656-2.6562-6.2109-2.8672-0.66797-0.097656-1.1602-0.078124-1.457 0.15234-0.25 0.19141-0.1875 0.53906-0.058594 0.91797 0.25 0.72266 0.87109 1.5195 1.8086 2.2695 1.6562 1.3242 3.1055 2.2344 4.7734 2.6562 1.5625 0.39453 3.3047 0.35938 5.5469-0.11719 0.070313-0.023438 0.14453-0.039063 0.21484-0.046875 1.3828-0.30469 2.9531-0.77344 4.7852-1.4062 1.0625-0.36719 2.2305-1.1797 3.375-2.2188 0.023438-0.023438 0.042969-0.042969 0.066407-0.0625zm20.68-5.875c0 0.51172 0.046875 1.0781 0.18359 1.6094 0.20703 0.78906 0.63672 1.5234 1.6289 1.6484 0.070313 0.011719 0.13672 0.019532 0.20703 0.023438 0.015624 0 0.027343 0.003906 0.042968 0.003906 1.4766 0.125 2.7344-0.35156 3.6367-0.86719-0.95312-0.26953-1.9766-0.59375-3.0898-0.97656-0.82422-0.28516-1.7109-0.78516-2.6094-1.4414zm8.2617 1.0039c2.2461 0.47266 3.9844 0.50781 5.5469 0.11719 1.668-0.42188 3.1172-1.332 4.7734-2.6562 0.9375-0.75 1.5586-1.5469 1.8086-2.2695 0.12891-0.38281 0.19141-0.72656-0.058593-0.91797-0.29688-0.23047-0.78906-0.25-1.457-0.15234-1.4492 0.21094-3.4961 1.0781-6.207 2.8672-0.44141 0.29297-1.0312 0.19141-1.3477-0.22656-0.32031-0.41797-0.25781-1.0156 0.13672-1.3594 0 0 5.0977-4.4102 6.5078-7.668 0.24609-0.56641 0.41797-1.0703 0.23438-1.4688-0.09375-0.19922-0.29688-0.32812-0.58984-0.4375-1.6055-0.58984-3.043 0.57812-4.2734 2.0078-1.8125 2.1055-3.1133 4.9727-3.5078 5.8906l-0.12109 0.29688-0.011719 0.023437c-0.21484 0.50391-0.79297 0.73828-1.3008 0.52734-0.50391-0.20703-0.75-0.78516-0.54688-1.293l0.011719-0.023438c0.019531-0.050781 0.066407-0.16406 0.14062-0.33594 0.53906-1.3047 2.4609-6.1172 2.7188-9.293 0.042969-0.54297 0.039063-1.0273-0.050781-1.4219-0.054687-0.24609-0.11328-0.46875-0.34375-0.49609-0.30469-0.035157-0.58984 0.097656-0.86719 0.30078-0.41406 0.30859-0.79688 0.77344-1.1602 1.3164-1.9414 2.9258-3.1367 8.0508-3.1367 8.0508-0.12109 0.52344-0.63672 0.85547-1.1641 0.75-0.52344-0.10156-0.87891-0.60156-0.79688-1.1289 0 0 0.85938-5.5-0.046875-8.7773-0.26172-0.96094-0.60938-1.7695-1.4492-1.7578-0.47266 0.011718-0.78125 0.30859-1.0039 0.72266-0.35156 0.65234-0.52344 1.543-0.60547 2.5117-0.28125 3.2344 0.48828 7.2617 0.48828 7.2617 0.09375 0.5-0.19922 0.98828-0.68359 1.1406-0.48438 0.15234-1.0039-0.082031-1.2109-0.54297 0 0-1.1328-2.5273-2.6328-4.2227-0.42969-0.48828-0.88672-0.90625-1.3633-1.1289-0.28906-0.13281-0.58203-0.17969-0.87109-0.023437-0.13672 0.074218-0.13281 0.24609-0.13672 0.42969-0.011719 0.48828 0.15234 1.0938 0.41406 1.7695 0.86328 2.2031 2.8398 5.0312 5.0078 7.1992 0.23438 0.23438 0.47656 0.46484 0.71484 0.68359 0.023437 0.019531 0.042969 0.039063 0.066406 0.0625 1.1445 1.0391 2.3125 1.8516 3.375 2.2188 1.832 0.63281 3.4023 1.1016 4.7852 1.4062 0.070313 0.007813 0.14453 0.023437 0.21484 0.046875zm-8.4141 26.152c4.9414-0.14453 9.2812-2.3125 12.863-5.0859 3.2383-2.5117 5.8633-5.5234 7.7656-8.0586-2.4648 2.0234-5.7891 4.6172-9.4062 7.0469-3.6367 2.4414-7.5703 4.7109-11.223 6.0977zm14.43-16.102c-4.8281 1.0781-8.3984 2.9688-11.027 5.1211-3.0586 2.5-4.8281 5.3438-5.8398 7.5938 2.1562-2.3047 5.5273-5.5898 9.625-8.5078 2.2266-1.582 4.6641-3.0547 7.2422-4.207zm-12.301 50.695c5.4609-3.8828 8.7266-8.0977 10.625-12.074 2.2578-4.7266 2.5664-9.0938 2.3828-12.082-1.0781 3.4922-3.0977 9.1602-6.2656 14.789-1.8438 3.2773-4.082 6.543-6.7422 9.3672zm9.418-26.117c-5.7227 2.5703-9.5508 7.3164-12.125 12.363-2.4805 4.8672-3.8086 10.027-4.5117 13.883 1.625-3.4922 4.0977-8.4961 7.0703-13.461 2.8359-4.7305 6.1289-9.4219 9.5664-12.785zm-23.129 25.41c-1.5508-2.7617-3.7617-6.0938-6.6445-9.0078-3.1836-3.2188-7.2031-5.9375-12.082-6.7266 3.4375 1.8555 7.0391 4.6172 10.324 7.5156 3.2695 2.8828 6.2266 5.8906 8.4023 8.2188zm-21.586-12.695c0.70312 2.3633 2.0859 5.4141 4.7891 8.293 2.3281 2.4805 5.6172 4.8203 10.266 6.5234-2.4023-1.4805-4.6328-3.2578-6.6328-5.1211-3.6797-3.4297-6.5898-7.1289-8.4219-9.6953zm-7.2383-27.262c1.7422 2.4805 4.6836 6.3047 8.4688 9.8281 3.3789 3.1484 7.4336 6.0703 11.91 7.5352-2.1445-2.375-5.7422-6.1797-9.8359-9.7891-3.3633-2.9688-7.0586-5.8086-10.543-7.5742zm53.73 15.605c-3.4648 3.2578-6.7773 7.9922-9.625 12.754-3.4961 5.832-6.2852 11.715-7.7969 15.07 4.7656-3.2617 8.4492-8.1797 11.227-13.113 3.1836-5.6602 5.1758-11.355 6.1953-14.711zm-14.664-11.164c3.6875-1.293 7.7227-3.6289 11.445-6.1289 4.5312-3.043 8.5938-6.3438 11.031-8.4141-4.6289 0.86328-9.0273 3.2305-12.793 5.9062-4.2109 3-7.6328 6.4023-9.6836 8.6367zm-30.512 21.223c1.7422 2.4805 4.6836 6.3047 8.4688 9.8281 3.3789 3.1484 7.4336 6.0703 11.91 7.5352-2.1445-2.375-5.7422-6.1797-9.8359-9.7891-3.3633-2.9648-7.0586-5.8086-10.543-7.5742z" fill-rule="evenodd"/>
<text x="0.0" y="117.5" font-size="5.0" font-weight="bold" font-family="Arbeit Regular, Helvetica, Arial-Unicode, Arial, Sans-serif" fill="#000000">Created by With ong today</text><text x="0.0" y="122.5" font-size="5.0" font-weight="bold" font-family="Arbeit Regular, Helvetica, Arial-Unicode, Arial, Sans-serif" fill="#000000">from Noun Project</text></svg>