<svg xmlns="http://www.w3.org/2000/svg" version="1.1" viewBox="-5.0 -10.0 110.0 135.0">
 <path d="m32.59 62.891c-0.125 0.046875-0.26172 0.066406-0.40625 0.054687-2.4648-0.17578-4.1328-0.89062-5.332-1.9141-1.1992-1.0312-1.9336-2.3906-2.4648-3.9375-0.625-1.8359-0.96094-3.9453-1.6328-5.9844-0.58594-1.7891-2.4727-2.9766-4.4531-3.8359-3.25-1.4141-6.8789-1.8555-6.8789-1.8555-0.35938-0.046875-0.66797-0.28125-0.80469-0.61328-0.13672-0.33203-0.082032-0.71484 0.14062-1 0 0 4.3047-5.5391 12.184-3.5352 2.3789 0.60156 4.4453 2.6836 6.0977 5.3789 1.1992 1.9492 2.1914 4.2109 2.9883 6.3633-0.14844-5.6641 0.019531-10.582 0.61719-14.922 0-0.003906 0-0.003906-0.003906-0.007813-2.6211-3.2734-7.8281-9.832-7.1172-16.66 0.76562-7.3555 7.7734-8.2188 7.7734-8.2188 0.37109-0.046875 0.73828 0.12109 0.94922 0.42969 0.21484 0.30859 0.23438 0.71094 0.054687 1.043-0.75781 1.3945-1.0195 3.918-1.0703 6.7578-0.070313 3.6211 0.25 7.7344 0.57031 10.867 1.4141-5.2227 3.7383-9.5352 7.2773-13.367 0.47266-0.50781 0.95703-0.95703 1.457-1.3438 0.35547-1.2578 1.7383-5.5898 4.6836-9.1797 2.4023-2.9297 5.8242-5.3633 10.516-5.4102 0.33594-0.003906 0.64844 0.16016 0.83594 0.4375 0.19141 0.27344 0.22656 0.625 0.10547 0.93359 0 0-2.3672 5.8281-5.0234 8.3242-0.90625 0.84766-2.3594 1.8789-3.875 2.8594 1.3398 0.13281 2.6797 0.48437 3.9805 0.98437 5.4531 2.0977 10.156 6.8203 10.969 7.668 2.4961-0.60938 11.414-1.7188 20.883 10.074 3.3594 4.1797 4.1836 7.7695 3.7383 10.613-0.69531 4.418-4.4961 7.1719-7.4727 7.875-4.3633 1.0312-14.336 5.8555-18.727 9.3672-2.5156 2.0117-6.3516 3.3008-9.332 1.9219-2.8711-1.3281-5.1914-5.2422-4.3945-13.945 1.5-16.348 10.152-23.07 13.363-25.027-1.4453-1.4258-5.3281-4.9805-9.7422-6.6797-2.4531-0.94141-5.082-1.3008-7.5156-0.26562-0.77734 0.44531-1.3477 0.76562-1.5547 0.87891-0.48828 0.35547-0.96484 0.77344-1.4258 1.2734-1.875 2.0312-3.3867 4.2031-4.5859 6.5859 0.51953-0.53125 1.0625-1.0391 1.6289-1.5039 2.207-1.8203 4.7188-2.9609 7.1484-2.6094 0.30469 0.042969 0.57031 0.22656 0.72266 0.49609 0.15625 0.26953 0.17578 0.59375 0.054687 0.87891 0 0-1.793 4.3203-3.6172 7.4492-1.1758 2.0195-3.4961 3.8945-5.8008 4.8281-1.1484 0.46484-2.2891 0.69141-3.3047 0.63672-0.74219 4.5156-0.94531 9.6875-0.78125 15.75 1.0273-2.9922 2.5391-6.793 4.4609-9.9883 1.7305-2.875 3.8086-5.25 6.125-6.2734 0.32812-0.14453 0.71094-0.10156 1 0.11328 0.28906 0.21484 0.44141 0.57031 0.39453 0.92578 0 0-0.94531 7.4961-1.5938 12.742-0.29297 2.3789-1.668 4.2266-3.4336 5.6016-2.1758 1.6992-4.9336 2.6641-6.6836 3.082 0.042969 0.74219 0.085938 1.4961 0.13672 2.2617 0 0.015625 0.003906 0.03125 0.003906 0.042969 0.03125 0.51953 0.066406 1.0391 0.10547 1.5664 0.37109 5.3281 0.60156 9.6992 0.70703 13.375 0.68359-2.043 1.5547-4.2031 2.6406-6.0742 1.4922-2.5781 3.3984-4.6016 5.6758-5.2656 3.8398-1.1172 6.0664-0.58594 7.3359 0.14063 1.5312 0.875 1.8672 2.1211 1.8672 2.1211 0.12891 0.42578-0.035156 0.88672-0.41016 1.1289 0 0-2.3945 1.5586-4.543 3.543-1.3398 1.2305-2.6094 2.6172-3.0156 3.8906-1.168 3.6484-3.6406 8.5703-9.5547 9.2305-0.23438 5.6484-0.96094 9.1797-2.0078 13.277-0.13672 0.53516-0.67969 0.85938-1.2148 0.72266-0.53516-0.13672-0.85937-0.67969-0.72266-1.2148 1.0117-3.9727 1.7148-7.4062 1.9453-12.836-4.2461 0.67578-7.7578-1.5469-11.27-5.3594-3.4414-3.7344-9.2109-6.1289-9.2109-6.1289-0.32031-0.13281-0.54688-0.42188-0.60156-0.76563-0.054688-0.34375 0.074218-0.69141 0.33984-0.91797 0 0 3.0625-2.7305 10.332-1.8242 2.9219 0.36719 5.5664 2.6016 7.6328 5.2227 1.1289 1.4297 2.0938 2.9609 2.8477 4.3047-0.042969-4.0469-0.26562-9.0586-0.71094-15.559zm-0.16016-2.3984c-0.14063-0.66016-1.3789-6.3516-3.75-11.305-0.81641-1.707-1.7695-3.332-2.8633-4.6094-1-1.168-2.1094-2.0508-3.3672-2.3711-4.1719-1.0586-7.1445 0.39062-8.7461 1.5781 1.457 0.30469 3.4883 0.82422 5.3945 1.6523 2.5312 1.1016 4.8047 2.7656 5.5547 5.0469 0.67188 2.0312 1.0039 4.1328 1.6289 5.9609 0.41016 1.1953 0.94531 2.2695 1.875 3.0664s2.25 1.3008 4.1719 1.4414c0.042969 0 0.089844 0.007813 0.13281 0.015625-0.011719-0.16016-0.023438-0.31641-0.03125-0.47656zm28.055-32.086c-3.5117 3.3398-8.0469 9.7266-9.0703 20.887-0.35156 3.832-0.09375 6.6289 0.58984 8.6133 0.60547 1.7539 1.5352 2.8164 2.6562 3.3359 2.3203 1.0781 5.2773-0.097657 7.2422-1.668 4.5703-3.6562 14.965-8.6758 19.512-9.75 2.3672-0.5625 5.4023-2.7305 5.957-6.2383 0.38281-2.4375-0.44531-5.4688-3.3203-9.0508-7-8.7188-13.586-9.7891-16.961-9.6289 4.7539 2.3438 14.684 8.2539 18.672 18.289 0.20312 0.51172-0.046875 1.0938-0.5625 1.2969-0.51172 0.20312-1.0938-0.046876-1.2969-0.55859-2.9648-7.4609-9.4219-12.492-14.23-15.367 1.6914 2.8281 3.457 6.8047 5.3008 10.352 1.3477 2.5938 2.7344 4.957 4.1875 6.3867 0.39062 0.38672 0.39844 1.0195 0.011719 1.4141s-1.0234 0.39844-1.4141 0.011719c-1.5742-1.5469-3.1016-4.082-4.5586-6.8867-2.0859-4.0156-4.0547-8.5898-5.9453-11.352-0.39062-0.57031-0.76953-1.0586-1.1445-1.4297 1.082 3.8281 4.2305 14.754 6.9102 21.785 0.19531 0.51562-0.0625 1.0938-0.57812 1.2891-0.51562 0.19922-1.0938-0.0625-1.2891-0.57812-2.8633-7.5039-6.2539-19.402-7.1406-22.559-0.39453 0.45312-0.6875 1.0742-0.92188 1.8047-0.40625 1.2578-0.60156 2.8203-0.66016 4.543-0.29688 8.3984 2.6602 20.398 2.6602 20.398 0.13281 0.53516-0.19531 1.0781-0.73047 1.207-0.53906 0.13281-1.0781-0.19531-1.2109-0.73047 0 0-3.0195-12.32-2.7188-20.945 0-0.015625 0-0.03125 0.003906-0.050782-0.875 2.0742-1.7305 4.4531-2.3789 7.0117-1.4258 5.6055-1.8828 12.09 0.61719 18.145 0.21094 0.50781-0.035156 1.0938-0.54297 1.3047-0.51172 0.21094-1.0977-0.03125-1.3086-0.54297-2.6719-6.4727-2.2266-13.406-0.70703-19.398 1.1523-4.5352 2.9219-8.5234 4.3711-11.34zm-25.32 5.6719c0.67188-0.007813 1.4219-0.20703 2.1797-0.51172 1.9102-0.77734 3.8516-2.3125 4.8281-3.9844 1.125-1.9336 2.2422-4.3398 2.8984-5.8242-1.1992 0.1875-2.3828 0.80078-3.5078 1.6133-2.543 1.8516-4.7383 4.7812-5.9492 6.9648-0.027343 0.046874-0.050781 0.089843-0.078125 0.13672-0.13281 0.52734-0.25391 1.0625-0.37109 1.6055zm9.9961-19.031c2.2344-1.2969 5.5508-3.3359 7.1211-4.8086 1.6055-1.5078 3.0742-4.3555 3.8828-6.1094-3.2109 0.50391-5.6211 2.3828-7.3984 4.5469-1.7734 2.1641-2.9258 4.6133-3.6055 6.3711zm-10.32 40.738c1.4805-0.45312 3.3555-1.2344 4.8945-2.4375 1.3555-1.0547 2.457-2.4453 2.6797-4.2656 0.43359-3.5273 1.0039-8.0664 1.332-10.668-1.9648 1.6055-3.6367 4.3164-5.0273 7.1445-1.9023 3.8711-3.2305 8.0078-3.8789 10.227zm-2.8672-22.824c-0.375-3.293-0.82422-8.2695-0.74219-12.562 0.039062-2.1562 0.22656-4.1445 0.60156-5.6992-1.6484 0.69922-3.9414 2.3164-4.3203 5.9297-0.48047 4.6445 2.1094 9.1094 4.4609 12.332zm3.5352 48.949c4.5703-0.78516 6.4297-4.8359 7.3711-7.7812 0.375-1.1758 1.3008-2.457 2.4453-3.6562 1.7227-1.8086 3.9219-3.4492 5.1016-4.2773-0.6875-0.65234-2.3945-1.5039-6.3125-0.35937-2.5078 0.73047-4.3203 3.6055-5.6992 6.7031-1.5625 3.5234-2.4961 7.4062-2.9062 9.3711zm-2.6484 0.039063c-0.6875-1.4648-2.082-4.168-3.9727-6.5664-1.7344-2.1914-3.8672-4.1719-6.3164-4.4766-3.457-0.42969-5.8008 0.050781-7.1914 0.55859 2.125 1.082 5.625 3.1055 8.0508 5.7383 2.9688 3.2188 5.8594 5.2773 9.4297 4.7461z" fill-rule="evenodd"/>
</svg>